<svg id="Capa_1" data-name="Capa 1" xmlns="http://www.w3.org/2000/svg" viewBox="0 0 16 16"><defs><style>.cls-1{fill:#5d5d5d;}</style></defs><title>v copia</title><path class="cls-1" d="M15.65,3.14a6.31,6.31,0,0,1-1.8.49A3.15,3.15,0,0,0,15.22,1.9a6.34,6.34,0,0,1-2,.76A3.14,3.14,0,0,0,7.8,4.8a3.07,3.07,0,0,0,.08.71A8.91,8.91,0,0,1,1.42,2.24a3.14,3.14,0,0,0,1,4.19A3.12,3.12,0,0,1,1,6v0A3.14,3.14,0,0,0,3.48,9.15a3.21,3.21,0,0,1-.83.11,3.06,3.06,0,0,1-.59-.06A3.14,3.14,0,0,0,5,11.38,6.28,6.28,0,0,1,1.1,12.72a6.7,6.7,0,0,1-.75,0,8.86,8.86,0,0,0,4.81,1.41,8.86,8.86,0,0,0,8.92-8.92V4.76A6.33,6.33,0,0,0,15.65,3.14Z"/></svg>