<svg id="Capa_1" data-name="Capa 1" xmlns="http://www.w3.org/2000/svg" viewBox="0 0 16 16"><defs><style>.cls-1{fill:#5d5d5d;}</style></defs><title>v copia 2</title><path class="cls-1" d="M10.94,1.3H5A3.64,3.64,0,0,0,1.41,4.94v5.9A3.64,3.64,0,0,0,5,14.48H11a3.64,3.64,0,0,0,3.64-3.64V4.94A3.65,3.65,0,0,0,10.94,1.3Zm2.47,9.53a2.47,2.47,0,0,1-2.47,2.47H5a2.47,2.47,0,0,1-2.47-2.47V4.94A2.47,2.47,0,0,1,5,2.47H11a2.47,2.47,0,0,1,2.47,2.47v5.89Z"/><path class="cls-1" d="M8,4.5a3.39,3.39,0,1,0,3.4,3.39A3.39,3.39,0,0,0,8,4.5Zm0,5.61a2.22,2.22,0,1,1,2.23-2.22A2.23,2.23,0,0,1,8,10.11Z"/><path class="cls-1" d="M11.53,3.51a.89.89,0,0,0-.61.25.84.84,0,0,0-.25.61.89.89,0,0,0,.25.61.87.87,0,0,0,.61.25A.89.89,0,0,0,12.13,5a.84.84,0,0,0,.25-.61.89.89,0,0,0-.25-.61A.84.84,0,0,0,11.53,3.51Z"/></svg>